<?xml version="1.0" encoding="UTF-8"?>
<svg id="Layer_2" data-name="Layer 2" xmlns="http://www.w3.org/2000/svg" viewBox="0 0 128 128">
  <defs>
    <style>
      .cls-1 {
        fill: #b6c5d5;
      }

      .cls-2 {
        fill: none;
      }
    </style>
  </defs>
  <g id="Layer_1-2" data-name="Layer 1">
    <g>
      <polygon class="cls-1" points="0 100 0 84 8 84 8 76 16 76 16 68 24 68 24 60 32 60 32 52 40 52 40 44 48 44 48 36 56 36 56 28 72 28 72 36 80 36 80 44 88 44 88 52 96 52 96 60 104 60 104 68 112 68 112 76 120 76 120 84 128 84 128 100 112 100 112 92 104 92 104 84 96 84 96 76 88 76 88 68 80 68 80 60 72 60 72 52 56 52 56 60 48 60 48 68 40 68 40 76 32 76 32 84 24 84 24 92 16 92 16 100 0 100"/>
      <rect class="cls-2" width="128" height="128" transform="translate(128 128) rotate(-180)"/>
    </g>
  </g>
</svg>