<?xml version="1.0" encoding="UTF-8"?>
<svg id="Layer_2" data-name="Layer 2" xmlns="http://www.w3.org/2000/svg" viewBox="0 0 128 128">
  <defs>
    <style>
      .cls-1 {
        fill: #b6c5d5;
      }

      .cls-2 {
        fill: none;
      }
    </style>
  </defs>
  <g id="Layer_1-2" data-name="Layer 1">
    <g>
      <polygon class="cls-1" points="104 24 104 40 96 40 96 48 88 48 88 56 80 56 80 72 88 72 88 80 96 80 96 88 104 88 104 104 88 104 88 96 80 96 80 88 72 88 72 80 56 80 56 88 48 88 48 96 40 96 40 104 24 104 24 88 32 88 32 80 40 80 40 72 48 72 48 56 40 56 40 48 32 48 32 40 24 40 24 24 40 24 40 32 48 32 48 40 56 40 56 48 72 48 72 40 80 40 80 32 88 32 88 24 104 24"/>
      <rect class="cls-2" width="128" height="128"/>
    </g>
  </g>
</svg>