<?xml version="1.0" encoding="UTF-8"?>
<svg id="Layer_2" data-name="Layer 2" xmlns="http://www.w3.org/2000/svg" viewBox="0 0 128 128">
  <defs>
    <style>
      .cls-1 {
        fill: #b6c5d5;
      }
    </style>
  </defs>
  <g id="Layer_1-2" data-name="Layer 1">
    <polygon class="cls-1" points="128 0 128 96 120 96 120 104 112 104 112 112 96 112 96 104 88 104 88 96 80 96 80 80 88 80 88 72 112 72 112 40 96 40 96 48 80 48 80 56 64 56 64 64 48 64 48 112 40 112 40 120 32 120 32 128 16 128 16 120 8 120 8 112 0 112 0 96 8 96 8 88 32 88 32 40 48 40 48 32 64 32 64 24 80 24 80 16 96 16 96 8 112 8 112 0 128 0"/>
  </g>
</svg>