<?xml version="1.0" encoding="UTF-8"?>
<svg id="Layer_2" data-name="Layer 2" xmlns="http://www.w3.org/2000/svg" viewBox="0 0 128 128">
  <defs>
    <style>
      .cls-1 {
        fill: #b6c5d5;
      }

      .cls-2 {
        fill: none;
      }
    </style>
  </defs>
  <g id="Layer_1-2" data-name="Layer 1">
    <g>
      <polygon class="cls-1" points="116 16 116 112 100 112 100 72 92 72 92 80 76 80 76 88 60 88 60 96 44 96 44 104 28 104 28 112 12 112 12 16 28 16 28 24 44 24 44 32 60 32 60 40 76 40 76 48 92 48 92 56 100 56 100 16 116 16"/>
      <rect class="cls-2" width="128" height="128"/>
    </g>
  </g>
</svg>