<?xml version="1.0" encoding="UTF-8"?>
<svg id="Layer_2" data-name="Layer 2" xmlns="http://www.w3.org/2000/svg" viewBox="0 0 128 128">
  <defs>
    <style>
      .cls-1 {
        fill: #b6c5d5;
      }
    </style>
  </defs>
  <g id="Layer_1-2" data-name="Layer 1">
    <polygon class="cls-1" points="128 40 128 56 104 56 104 72 88 72 88 80 96 80 96 96 104 96 104 112 112 112 112 128 88 128 88 112 72 112 72 96 56 96 56 112 40 112 40 128 16 128 16 112 24 112 24 96 32 96 32 80 40 80 40 72 24 72 24 56 0 56 0 40 48 40 48 24 56 24 56 0 72 0 72 24 80 24 80 40 128 40"/>
  </g>
</svg>