<?xml version="1.0" encoding="UTF-8"?>
<svg id="Layer_2" data-name="Layer 2" xmlns="http://www.w3.org/2000/svg" viewBox="0 0 128 128">
  <defs>
    <style>
      .cls-1 {
        fill: #b6c5d5;
      }
    </style>
  </defs>
  <g id="Layer_1-2" data-name="Layer 1">
    <path class="cls-1" d="M120,56v-8h-16v-8h8v-16h-8v-8h-16v8h-8V8h-8V0h-16v8h-8v16h-8v-8h-16v8h-8v16h8v8H8v8H0v16h8v8h16v8h-8v16h8v8h16v-8h8v16h8v8h16v-8h8v-16h8v8h16v-8h8v-16h-8v-8h16v-8h8v-16h-8ZM80,72v8h-8v8h-16v-8h-8v-8h-8v-16h8v-8h8v-8h16v8h8v8h8v16h-8Z"/>
  </g>
</svg>