<?xml version="1.0" encoding="UTF-8"?>
<svg id="Layer_2" data-name="Layer 2" xmlns="http://www.w3.org/2000/svg" viewBox="0 0 128 128">
  <defs>
    <style>
      .cls-1 {
        fill: #b6c5d5;
      }

      .cls-2 {
        fill: none;
      }
    </style>
  </defs>
  <g id="Layer_1-2" data-name="Layer 1">
    <g>
      <g>
        <polygon class="cls-1" points="80 0 80 128 64 128 64 120 56 120 56 112 48 112 48 104 40 104 40 96 32 96 32 88 0 88 0 40 32 40 32 32 40 32 40 24 48 24 48 16 56 16 56 8 64 8 64 0 80 0"/>
        <polygon class="cls-1" points="112 72 120 72 120 80 128 80 128 96 120 96 120 88 112 88 112 80 104 80 104 88 96 88 96 96 88 96 88 80 96 80 96 72 104 72 104 56 96 56 96 48 88 48 88 32 96 32 96 40 104 40 104 48 112 48 112 40 120 40 120 32 128 32 128 48 120 48 120 56 112 56 112 72"/>
      </g>
      <rect class="cls-2" width="128" height="128"/>
    </g>
  </g>
</svg>