<?xml version="1.0" encoding="UTF-8"?>
<svg id="Layer_2" data-name="Layer 2" xmlns="http://www.w3.org/2000/svg" viewBox="0 0 128 128">
  <defs>
    <style>
      .cls-1 {
        fill: #b6c5d5;
      }

      .cls-2 {
        fill: none;
      }
    </style>
  </defs>
  <g id="Layer_1-2" data-name="Layer 1">
    <g>
      <g>
        <polygon class="cls-1" points="128 48 128 80 120 80 120 88 112 88 112 96 96 96 96 88 104 88 104 80 112 80 112 72 120 72 120 56 112 56 112 48 104 48 104 40 96 40 96 32 112 32 112 40 120 40 120 48 128 48"/>
        <rect class="cls-1" x="96" y="56" width="8" height="16"/>
        <rect class="cls-1" x="88" y="48" width="8" height="8"/>
        <rect class="cls-1" x="88" y="72" width="8" height="8"/>
        <polygon class="cls-1" points="80 0 80 128 64 128 64 120 56 120 56 112 48 112 48 104 40 104 40 96 32 96 32 88 0 88 0 40 32 40 32 32 40 32 40 24 48 24 48 16 56 16 56 8 64 8 64 0 80 0"/>
      </g>
      <rect class="cls-2" width="128" height="128"/>
    </g>
  </g>
</svg>