<?xml version="1.0" encoding="UTF-8"?>
<svg id="Layer_2" data-name="Layer 2" xmlns="http://www.w3.org/2000/svg" viewBox="0 0 1623.38 264.68">
  <defs>
    <style>
      .cls-1 {
        fill: #b6c5d5;
      }

      .cls-2 {
        fill: #e6bb21;
      }

      .cls-3 {
        fill: #76ac42;
      }

      .cls-4 {
        fill: #f47b3b;
      }

      .cls-5 {
        fill: #882e86;
      }

      .cls-6 {
        fill: #3770b8;
      }

      .cls-7 {
        fill: #dd3b40;
      }
    </style>
  </defs>
  <g id="Layer_1-2" data-name="Layer 1">
    <path class="cls-2" d="M102.45,130.58v43.08h17.67v3.04c0,9.66-8.84,16.02-20.16,16.02-17.12,0-32.03-7.73-32.03-55.5s11.32-55.5,24.3-55.5c9.94,0,18.5,4.69,18.23,29.82l65.17-4.69V0H0v140.52c0,65.72,30.93,100.79,83.95,100.79,21.54,0,37.28-6.35,47.77-17.67l3.59,16.84h45.01v-109.9h-77.87Z"/>
    <path class="cls-5" d="M684.53,153.5c24.58-13.25,28.44-37.28,28.44-56.06V0h-159.61v237.72h64.62v-73.73h.55c1.1,0,3.31,0,5.52-.28l27.34,74h68.21l-35.07-84.22ZM626.54,117.05h-8.56v-31.2h12.7c12.98,0,17.12,5.8,17.12,15.19,0,13.81-9.94,16.02-21.26,16.02Z"/>
    <polygon class="cls-6" points="796.91 184.7 796.91 160.68 857.39 160.68 857.39 109.04 796.91 109.04 796.91 87.78 865.4 87.78 865.4 35.04 865.4 0 731.74 0 731.74 35.04 731.74 54.34 731.74 237.72 867.88 237.72 867.88 184.7 796.91 184.7"/>
    <path class="cls-3" d="M980.54,108.77c-22.92-6.35-30.1-11.05-30.1-19.88,0-5.8,4.42-9.39,11.87-9.39,8.84,0,14.91,7.46,17.12,20.71l65.17-9.66V0h-163.47v98.55c0,32.86,17.12,51.91,63.24,62.68,20.71,4.97,37,7.18,37,19.61,0,6.9-4.42,10.49-12.43,10.49-14.08,0-22.64-7.46-25.68-22.09l-67.65,8.84c7.46,42.53,36.45,62.96,89.75,62.96,50.53,0,80.63-26.23,80.63-70.14s-37.55-54.68-65.44-62.13Z"/>
    <polygon class="cls-4" points="264.53 184.7 264.53 160.68 325.01 160.68 325.01 109.04 264.53 109.04 264.53 87.78 333.02 87.78 333.02 35.04 333.02 0 199.36 0 199.36 35.04 199.36 237.72 335.5 237.72 335.5 184.7 264.53 184.7"/>
    <polygon class="cls-7" points="472.15 0 472.15 35.04 472.18 35.04 472.18 140.8 470.8 140.8 424.96 35.04 424.96 0 352.06 0 352.06 35.04 352.06 237.72 412.54 237.72 412.54 136.93 413.92 136.93 462.52 237.72 532.94 237.72 532.94 35.04 532.94 0 472.15 0"/>
    <g>
      <path class="cls-1" d="M1082.56,87.67c0-23.41,11.9-36.64,33.21-36.64s31.79,12.94,31.79,35.59-10.75,36.74-32.83,36.74-32.17-13.32-32.17-35.69ZM1123.95,86.62c0-14.66-3.52-17.89-8.76-17.89-4.76,0-8.95,2.85-8.95,18.46s3.33,18.84,8.85,18.84c5.04,0,8.85-3.14,8.85-19.41Z"/>
      <path class="cls-1" d="M1152.98,52.27h46.06v18.18h-23.6v10.18h20.75v17.51h-20.75v23.98h-22.46V52.27Z"/>
      <path class="cls-1" d="M1101.78,166.47h27.41l22.65,69.85h-22.94l-3.81-12.75h-19.51l-3.71,12.75h-22.08l21.98-69.85ZM1120.62,206.91l-5.33-19.6h-.38l-5.04,19.6h10.75Z"/>
      <path class="cls-1" d="M1153.36,210.34v-43.87h21.89v37.12c0,10.75.19,16.27,7.9,16.27s7.71-5.71,7.71-16.37v-37.02h21.98v44.44c0,16.75-8.95,26.55-30.26,26.55-22.36,0-29.22-10.56-29.22-27.12Z"/>
      <path class="cls-1" d="M1216.36,215.77l23.32-3.05c1.05,5.04,4,7.61,8.85,7.61,2.76,0,4.28-1.24,4.28-3.62,0-4.28-5.61-5.04-12.75-6.76-15.89-3.71-21.79-10.28-21.79-21.6,0-14.37,11.23-23.22,29.6-23.22,15.13,0,24.17,6.95,26.74,20.46l-22.46,3.33c-.76-4.57-2.85-7.14-5.9-7.14-2.57,0-4.09,1.24-4.09,3.24,0,3.05,2.47,4.66,10.37,6.85,9.61,2.57,22.55,5.61,22.55,21.41s-10.37,24.17-27.79,24.17c-18.37,0-28.36-7.04-30.93-21.7Z"/>
      <path class="cls-1" d="M1291.16,184.65h-16.46v-18.18h55.29v18.18h-16.37v51.68h-22.46v-51.68Z"/>
      <path class="cls-1" d="M1333.51,166.47h30.64c16.75,0,24.36,8.28,24.36,21.51,0,6.47-1.33,14.75-9.8,19.32l12.09,29.03h-23.51l-9.42-25.51c-.76.1-1.52.1-1.9.1h-.19v25.41h-22.27v-69.85ZM1358.73,194.73c3.9,0,7.33-.76,7.33-5.52,0-3.24-1.43-5.23-5.9-5.23h-4.38v10.75h2.95Z"/>
      <path class="cls-1" d="M1412.59,166.47h27.41l22.65,69.85h-22.94l-3.81-12.75h-19.51l-3.71,12.75h-22.08l21.98-69.85ZM1431.44,206.91l-5.33-19.6h-.38l-5.04,19.6h10.75Z"/>
      <path class="cls-1" d="M1465.41,166.47h22.46v51.58h21.41v18.27h-43.87v-69.85Z"/>
      <path class="cls-1" d="M1513.66,222.9h6.85v-43.02h-6.76v-13.42h35.88v13.42h-6.76v43.02h6.66v13.42h-35.88v-13.42Z"/>
      <path class="cls-1" d="M1573.33,166.47h27.41l22.65,69.85h-22.94l-3.81-12.75h-19.51l-3.71,12.75h-22.08l21.98-69.85ZM1592.17,206.91l-5.33-19.6h-.38l-5.04,19.6h10.75Z"/>
    </g>
  </g>
</svg>