<?xml version="1.0" encoding="UTF-8"?>
<svg id="Layer_2" data-name="Layer 2" xmlns="http://www.w3.org/2000/svg" viewBox="0 0 1623.38 210.36">
  <defs>
    <style>
      .cls-1 {
        fill: #b6c5d5;
      }

      .cls-2 {
        fill: #e6bb21;
      }

      .cls-3 {
        fill: #76ac42;
      }

      .cls-4 {
        fill: #f47b3b;
      }

      .cls-5 {
        fill: #882e86;
      }

      .cls-6 {
        fill: #3770b8;
      }

      .cls-7 {
        fill: #dd3b40;
      }
    </style>
  </defs>
  <g id="Layer_1-2" data-name="Layer 1">
    <g>
      <path class="cls-1" d="M1082.56,58.12c0-23.41,11.9-36.64,33.21-36.64s31.79,12.94,31.79,35.59-10.75,36.74-32.83,36.74-32.17-13.32-32.17-35.69ZM1123.95,57.07c0-14.66-3.52-17.89-8.76-17.89-4.76,0-8.95,2.85-8.95,18.46s3.33,18.84,8.85,18.84c5.04,0,8.85-3.14,8.85-19.41Z"/>
      <path class="cls-1" d="M1152.98,22.71h46.06v18.18h-23.6v10.18h20.75v17.51h-20.75v23.98h-22.46V22.71Z"/>
      <path class="cls-1" d="M1101.78,136.91h27.41l22.65,69.85h-22.94l-3.81-12.75h-19.51l-3.71,12.75h-22.08l21.98-69.85ZM1120.62,177.36l-5.33-19.6h-.38l-5.04,19.6h10.75Z"/>
      <path class="cls-1" d="M1153.36,180.79v-43.87h21.89v37.12c0,10.75.19,16.27,7.9,16.27s7.71-5.71,7.71-16.37v-37.02h21.98v44.44c0,16.75-8.95,26.55-30.26,26.55-22.36,0-29.22-10.56-29.22-27.12Z"/>
      <path class="cls-1" d="M1216.36,186.21l23.32-3.05c1.05,5.04,4,7.61,8.85,7.61,2.76,0,4.28-1.24,4.28-3.62,0-4.28-5.61-5.04-12.75-6.76-15.89-3.71-21.79-10.28-21.79-21.6,0-14.37,11.23-23.22,29.6-23.22,15.13,0,24.17,6.95,26.74,20.46l-22.46,3.33c-.76-4.57-2.85-7.14-5.9-7.14-2.57,0-4.09,1.24-4.09,3.24,0,3.05,2.47,4.66,10.37,6.85,9.61,2.57,22.55,5.61,22.55,21.41s-10.37,24.17-27.79,24.17c-18.37,0-28.36-7.04-30.93-21.7Z"/>
      <path class="cls-1" d="M1291.16,155.09h-16.46v-18.18h55.29v18.18h-16.37v51.68h-22.46v-51.68Z"/>
      <path class="cls-1" d="M1333.51,136.91h30.64c16.75,0,24.36,8.28,24.36,21.51,0,6.47-1.33,14.75-9.8,19.32l12.09,29.03h-23.51l-9.42-25.51c-.76.1-1.52.1-1.9.1h-.19v25.41h-22.27v-69.85ZM1358.73,165.18c3.9,0,7.33-.76,7.33-5.52,0-3.24-1.43-5.23-5.9-5.23h-4.38v10.75h2.95Z"/>
      <path class="cls-1" d="M1412.59,136.91h27.41l22.65,69.85h-22.94l-3.81-12.75h-19.51l-3.71,12.75h-22.08l21.98-69.85ZM1431.43,177.36l-5.33-19.6h-.38l-5.04,19.6h10.75Z"/>
      <path class="cls-1" d="M1465.41,136.91h22.46v51.58h21.41v18.27h-43.87v-69.85Z"/>
      <path class="cls-1" d="M1513.65,193.35h6.85v-43.02h-6.76v-13.42h35.88v13.42h-6.76v43.02h6.66v13.42h-35.88v-13.42Z"/>
      <path class="cls-1" d="M1573.32,136.91h27.41l22.65,69.85h-22.94l-3.81-12.75h-19.51l-3.71,12.75h-22.08l21.98-69.85ZM1592.17,177.36l-5.33-19.6h-.38l-5.04,19.6h10.75Z"/>
    </g>
    <g>
      <path class="cls-2" d="M0,109.47C0,30.96,40.08.28,97.86.28c47.55,0,76.29,24.88,77.95,75.46l-65.24,4.7c.28-25.16-8.29-29.85-18.24-29.85-12.99,0-24.33,9.95-24.33,55.56s14.93,55.56,32.07,55.56c11.33,0,20.18-6.36,20.18-16.03v-3.04h-17.69v-43.12h77.95v110.02h-45.06l-3.59-16.86c-10.5,11.33-26.26,17.69-47.82,17.69C30.96,210.36,0,175.26,0,109.47Z"/>
      <path class="cls-4" d="M199.58,3.87h133.79v52.8h-68.55v21.29h60.54v51.69h-60.54v24.05h71.04v53.07h-136.28V3.87Z"/>
      <path class="cls-7" d="M352.44,3.87h72.98l45.89,105.87h1.38V3.87h60.81v202.9h-70.49l-48.65-100.9h-1.38v100.9h-60.54V3.87Z"/>
      <path class="cls-5" d="M553.95,3.87h89.01c48.65,0,70.77,24.05,70.77,62.47,0,18.8-3.87,42.85-28.47,56.11l35.11,84.31h-68.28l-27.37-74.08c-2.21.28-4.42.28-5.53.28h-.55v73.81h-64.68V3.87ZM627.2,85.97c11.33,0,21.28-2.21,21.28-16.03,0-9.4-4.15-15.2-17.14-15.2h-12.72v31.24h8.57Z"/>
      <path class="cls-6" d="M732.52,3.87h133.79v52.8h-68.55v21.29h60.54v51.69h-60.54v24.05h71.04v53.07h-136.28V3.87Z"/>
      <path class="cls-3" d="M876.53,147.06l67.73-8.85c3.04,14.65,11.61,22.11,25.71,22.11,8.02,0,12.44-3.59,12.44-10.5,0-12.44-16.31-14.65-37.04-19.63-46.16-10.78-63.3-29.85-63.3-62.75,0-41.74,32.62-67.45,85.97-67.45,43.95,0,70.21,20.18,77.68,59.43l-65.24,9.68c-2.21-13.27-8.29-20.73-17.14-20.73-7.46,0-11.89,3.59-11.89,9.4,0,8.85,7.19,13.54,30.13,19.9,27.92,7.46,65.51,16.31,65.51,62.2s-30.13,70.21-80.72,70.21c-53.35,0-82.38-20.46-89.84-63.03Z"/>
    </g>
  </g>
</svg>